<svg width="53" height="87" viewBox="0 0 53 87" fill="none" xmlns="http://www.w3.org/2000/svg">
<path fill-rule="evenodd" clip-rule="evenodd" d="M42.1686 0C42.1686 0 22.2114 16.2935 18.5137 40.7844C18.5137 40.7844 11.9036 72.6861 36.0903 55.0729C36.0903 55.0729 24.9973 69.3614 16.0064 65.9352C16.0064 65.9352 9.80147 63.8542 14.1576 43.1955C14.1576 43.1955 22.2114 13.248 42.1686 0Z" fill="#33585C"/>
<path fill-rule="evenodd" clip-rule="evenodd" d="M23.7814 39.7438C23.7814 39.7438 45.942 37.6373 47.2337 28.2216C47.2843 27.8917 47.3096 27.5364 47.2843 27.1811C47.031 16.8517 32.3417 14.2123 32.3417 14.2123C32.3417 14.2123 21.2488 11.5729 9.21875 13.6286C9.21875 13.6286 34.5451 7.15688 48.1961 17.2324C61.847 27.308 42.0671 36.7998 42.0671 36.7998C42.0671 36.7998 35.0263 40.4037 23.7814 39.7438Z" fill="#901D77"/>
<path d="M11.9541 73.1683C11.8781 73.9805 11.6248 74.6911 11.1689 75.3002C10.7384 75.9093 10.1559 76.3915 9.47207 76.7214C8.1551 77.3813 6.63551 77.7112 4.91332 77.7112C4.6094 77.7112 4.33081 77.6858 4.07755 77.6604C3.06449 80.2491 2.55797 81.9749 2.55797 82.8886C2.55797 83.0662 2.58329 83.2185 2.63394 83.2946H0.253264C0.607833 81.7973 1.31697 79.7415 2.43133 77.1021C3.90026 73.5744 4.86267 71.5694 5.29321 71.1126C4.25483 71.138 3.19112 71.341 2.12742 71.7471C1.06371 72.1532 0.430549 72.6354 0.253264 73.1683C0.253264 73.1937 0.227937 73.2191 0.177285 73.2191C0.0759792 73.2191 0 73.1429 0 72.9907C0 72.9653 0 72.9145 0.0253264 72.813C0.253264 72.1278 0.607833 71.6202 1.03838 71.2395C1.46893 70.8588 1.92481 70.6304 2.33003 70.5543C2.76058 70.4781 3.2671 70.4274 3.90026 70.4274H8.56032C9.67468 70.4274 10.5105 70.6558 11.093 71.138C11.6755 71.6202 11.9541 72.2293 11.9541 72.9399V73.1683ZM7.04074 76.8991C7.92716 76.5945 8.6363 76.1123 9.19348 75.4778C9.75066 74.8434 10.0292 74.082 10.0292 73.2191C10.0292 71.8232 9.19348 71.0619 7.49661 70.9603C6.68617 71.9755 5.69844 73.8028 4.55875 76.4676L4.17885 77.3813H4.40679C5.26789 77.3559 6.15431 77.2036 7.04074 76.8991Z" fill="#8F1E78"/>
<path d="M16.7407 75.9093L17.6525 75.9347H17.8298C17.4245 76.2646 16.918 77.1021 16.3355 78.4472C15.753 79.7923 15.4491 80.7821 15.4491 81.3912C15.4491 81.7211 15.5504 81.8734 15.7783 81.8734C16.4875 81.8734 17.3992 80.8329 18.5136 78.7264C18.5642 78.6502 18.6149 78.5995 18.6402 78.5995C18.7162 78.5995 18.7415 78.701 18.7415 78.9294C18.7415 79.1578 18.6909 79.3862 18.5642 79.5893C17.0446 82.1272 15.7783 83.4215 14.7653 83.4215C14.1068 83.4215 13.7775 82.914 13.7775 81.8988C13.7775 81.1374 13.9042 80.376 14.1574 79.64C12.7645 82.1272 11.4728 83.3708 10.2825 83.3708C9.47205 83.3708 9.0415 82.8124 9.0415 81.6704C9.0415 80.8075 9.21879 79.9446 9.59868 79.0563C9.97858 78.168 10.5104 77.4067 11.2196 76.7976C11.9287 76.1885 12.6885 75.8585 13.5243 75.8585C13.9295 75.8585 14.2841 75.96 14.6386 76.1377C14.9932 76.3153 15.2211 76.5945 15.3224 77.0006C15.4491 76.7214 15.677 76.4676 15.9556 76.2646C16.2342 76.0108 16.5128 75.9093 16.7407 75.9093ZM15.2211 77.1275C15.0945 76.7214 14.8159 76.5438 14.36 76.5438C13.5496 76.5438 12.7645 77.1021 12.0047 78.2442C11.2449 79.3609 10.865 80.376 10.865 81.2643C10.865 81.645 11.017 81.848 11.2956 81.848C11.6248 81.848 11.9794 81.645 12.4099 81.2389C12.8405 80.8329 13.2204 80.376 13.5749 79.8177C14.3347 78.5995 14.8919 77.7112 15.2211 77.1275Z" fill="#8F1E78"/>
<path d="M25.377 76.0869H26.1368C25.7569 76.3153 25.377 76.899 24.9718 77.8127C24.6426 78.5994 24.3893 79.2847 24.1614 79.9192C23.9334 80.5536 23.8068 80.9343 23.7561 81.0612C23.7055 81.1881 23.6042 81.5181 23.4269 82.051C23.2496 82.584 23.0977 82.9647 22.9964 83.2692C22.6924 84.1321 22.3379 84.8174 21.9326 85.3249C21.5274 85.8325 21.0209 86.2386 20.4131 86.5431C19.8052 86.8477 19.1974 87 18.5896 87C17.9817 87 17.4499 86.8731 17.0193 86.6447C16.5888 86.4162 16.3608 86.0356 16.3608 85.5026C16.3608 85.2234 16.4368 84.995 16.6141 84.7666C16.7914 84.5636 16.9687 84.4367 17.1966 84.4367C17.3992 84.4367 17.6018 84.4874 17.7285 84.5889C17.8804 84.6905 17.9817 84.792 18.0324 84.9189C17.8044 84.995 17.7031 85.2488 17.7031 85.7056C17.7031 85.934 17.7791 86.1371 17.9564 86.264C18.1337 86.3909 18.3363 86.467 18.5896 86.467C19.5773 86.467 20.4131 85.5787 21.0969 83.8022L22.1353 80.9851C21.5527 81.7211 21.0462 82.2541 20.641 82.6094C20.2105 82.9647 19.8812 83.1931 19.6533 83.2692C19.4253 83.3454 19.1214 83.3707 18.8175 83.3707C18.4883 83.3707 18.235 83.2438 18.0324 82.9647C17.8298 82.7109 17.7285 82.3048 17.7538 81.7972C17.7538 81.2896 17.9058 80.5536 18.1843 79.6146C18.4629 78.6756 18.7922 77.9142 19.1467 77.3559C19.5013 76.7975 19.8559 76.4422 20.2358 76.2899C20.6157 76.1377 21.1222 76.0615 21.7807 76.0615C21.8313 76.0615 21.8567 76.0869 21.8567 76.1377C21.8567 76.1884 21.8313 76.2392 21.7554 76.3153C21.2488 76.7468 20.7423 77.5589 20.2105 78.701C19.6786 79.843 19.4253 80.8074 19.4253 81.5942C19.4253 82.0003 19.552 82.2287 19.7799 82.2287C20.2105 82.2287 20.793 81.7972 21.4768 80.909C22.1606 80.0207 22.6924 79.1324 23.0723 78.2441C23.123 78.1172 23.199 77.9396 23.2749 77.7112C23.3762 77.4828 23.4269 77.3051 23.4776 77.229C23.5029 77.1528 23.5789 77.0259 23.6548 76.8737C23.7308 76.7214 23.8068 76.6199 23.8574 76.5691C23.9081 76.5183 24.0094 76.4422 24.1107 76.3661C24.212 76.2899 24.3133 76.2138 24.44 76.1884C24.7439 76.1123 25.0731 76.0869 25.377 76.0869Z" fill="#8F1E78"/>
<path d="M37.331 73.1683C37.255 73.9805 37.0018 74.6911 36.5459 75.3002C36.09 75.9093 35.5328 76.3915 34.849 76.7214C33.5321 77.3813 32.0125 77.7112 30.2903 77.7112C29.9864 77.7112 29.7078 77.6858 29.4545 77.6604C28.4414 80.2491 27.9349 81.9749 27.9349 82.8886C27.9349 83.0662 27.9602 83.2185 28.0109 83.2946H25.6302C25.9848 81.7973 26.6939 79.7415 27.8083 77.1021C29.2772 73.5744 30.2396 71.5694 30.6702 71.1126C29.6318 71.138 28.5681 71.341 27.5044 71.7471C26.4407 72.1532 25.8075 72.6354 25.6302 73.1683C25.6302 73.1937 25.6049 73.2191 25.5542 73.2191C25.4529 73.2191 25.377 73.1429 25.377 72.9907C25.377 72.9653 25.377 72.9145 25.4023 72.813C25.6302 72.1278 25.9848 71.6202 26.4153 71.2395C26.8459 70.8588 27.3018 70.6304 27.707 70.5543C28.1375 70.4781 28.6441 70.4274 29.2772 70.4274H33.9373C35.0516 70.4274 35.8874 70.6558 36.4699 71.138C37.0524 71.6202 37.331 72.2293 37.331 72.9399V73.1683ZM32.4177 76.8991C33.3041 76.5945 34.0133 76.1123 34.5704 75.4778C35.1276 74.8434 35.4062 74.082 35.4062 73.2191C35.4062 71.8232 34.5704 71.0619 32.8736 70.9603C32.0631 71.9755 31.0754 73.8028 29.9357 76.4676L29.5558 77.3813H29.7837C30.6702 77.3559 31.5313 77.2036 32.4177 76.8991Z" fill="#31585C"/>
<path d="M41.0034 75.8586L41.9405 75.8839H42.1177C41.9405 76.0108 41.6619 76.4169 41.3326 77.0768C41.0034 77.7366 40.7501 78.2442 40.5728 78.5741C40.3955 78.9041 40.2183 79.3609 40.0157 79.9446C39.813 80.5283 39.7117 80.9852 39.7117 81.3405C39.7117 81.6958 39.8384 81.8734 40.0916 81.8734C40.2436 81.8734 40.4715 81.7465 40.7754 81.5435C41.054 81.3405 41.3073 81.1121 41.4846 80.8583C41.6872 80.6299 41.8898 80.2999 42.1177 79.9446C42.3457 79.5893 42.5483 79.234 42.7002 78.9548C42.8775 78.6757 42.9535 78.5488 42.9788 78.5488C43.0548 78.5488 43.1055 78.6503 43.1055 78.8787C43.1055 79.1071 43.0548 79.3355 42.9282 79.5386C42.3963 80.4014 41.9658 81.0867 41.6112 81.5435C41.2566 82.0003 40.8514 82.4318 40.3702 82.8379C39.889 83.2185 39.4585 83.4216 39.0532 83.4216C38.3441 83.4216 38.0149 82.914 38.0149 81.8734C38.0149 81.1628 38.1415 80.3761 38.4201 79.4878C38.6987 78.5995 39.0786 77.7366 39.6104 76.9245C39.1799 77.2798 38.7493 77.4321 38.3188 77.4321C38.1922 77.4321 38.0402 77.4067 37.8882 77.3306C37.0271 79.0564 36.5459 79.9192 36.47 79.9192C36.394 79.9192 36.3687 79.8177 36.3687 79.6147C36.3687 79.4117 36.4446 79.1325 36.5966 78.7772C36.7485 78.4219 36.9258 78.0666 37.1031 77.7366C37.2804 77.4067 37.3817 77.229 37.3817 77.1783C36.9512 76.9499 36.7232 76.5946 36.7232 76.1124C36.7232 75.8586 36.7992 75.6555 36.9512 75.4525C37.1031 75.2495 37.3057 75.1479 37.5843 75.1479C37.8629 75.1479 38.0655 75.2241 38.2428 75.4017C38.2175 75.4779 38.2175 75.5794 38.2175 75.7317C38.2175 76.0616 38.3441 76.3154 38.572 76.5184C38.8 76.7215 39.1039 76.7976 39.4585 76.7976C39.5598 76.7976 39.6358 76.7976 39.6864 76.7722C40.1423 76.1631 40.5728 75.8586 41.0034 75.8586Z" fill="#31585C"/>
<path d="M49.6399 78.498C49.7158 78.498 49.7412 78.6249 49.7412 78.8533C49.7412 79.0817 49.6399 79.3863 49.4373 79.7162C49.2346 80.0461 49.0574 80.3507 48.8548 80.6552C48.6521 80.9598 48.3989 81.2897 48.095 81.6958C47.7657 82.1019 47.4618 82.4064 47.1579 82.6348C46.3728 83.1932 45.613 83.4723 44.8279 83.4723C44.0427 83.4723 43.4096 83.2693 42.9284 82.8632C42.4472 82.4572 42.2192 81.8481 42.2192 81.0359C42.2192 79.7923 42.6751 78.6249 43.6122 77.559C44.5239 76.4931 45.613 75.9601 46.8286 75.9601C47.3858 75.9601 47.8164 76.1124 48.1456 76.3915C48.4749 76.6707 48.6521 77.026 48.6521 77.4321C48.6521 78.1173 48.3229 78.6757 47.6644 79.0817C47.0059 79.4878 46.2461 79.7162 45.3597 79.7162C44.8532 79.7162 44.4733 79.6401 44.22 79.5132C43.9921 80.1477 43.8655 80.706 43.8655 81.1628C43.8655 82.2034 44.296 82.711 45.1824 82.711C45.689 82.711 46.2208 82.5079 46.778 82.1019C47.3352 81.6958 47.791 81.2643 48.1709 80.7568C48.5508 80.2492 49.0067 79.5386 49.4879 78.5995C49.5639 78.5234 49.5892 78.498 49.6399 78.498ZM47.6897 77.026C47.6897 76.6707 47.5125 76.493 47.1832 76.493C46.702 76.493 46.1702 76.7976 45.5876 77.3813C45.0051 77.965 44.7012 78.4473 44.7012 78.8279C44.7012 79.0817 44.9292 79.2086 45.4104 79.2086C45.8662 79.2086 46.3728 78.9802 46.8793 78.5234C47.3605 78.0412 47.6391 77.559 47.6897 77.026Z" fill="#31585C"/>
</svg>
