<svg width="35" height="34" viewBox="0 0 35 34" fill="none" xmlns="http://www.w3.org/2000/svg">
<path d="M10.7033 10.4059C9.18875 12.3893 8.91829 13.0204 8.35935 16.0675C7.49388 16.0675 6.62842 16.1036 5.76295 16.0495C5.58265 16.0314 5.38431 15.743 5.29416 15.5266C4.86143 14.6972 3.9599 14.1382 3.09444 14.2284C2.12079 14.3186 1.32745 14.9676 1.07502 15.8692C0.822591 16.7707 1.1832 17.7624 1.95851 18.3033C3.07641 19.0966 4.62703 18.718 5.24007 17.4739C5.42037 17.0952 5.61871 17.0051 5.99735 17.0231C6.79069 17.0412 7.566 17.0231 8.28722 17.0231C8.57571 18.0689 8.77405 19.0786 9.15269 20.0162C9.53133 20.9357 10.1444 21.7652 10.7033 22.7388C10.4148 23.0093 10.0362 23.3338 9.67557 23.6764C9.13466 24.1993 8.73799 24.8123 7.72828 24.3796C6.84478 24.0009 5.78098 24.7222 5.36628 25.6237C4.95158 26.5072 5.18598 27.6251 5.92523 28.2742C6.68251 28.9413 7.83646 29.0134 8.6839 28.4545C9.5133 27.8955 9.89194 26.8678 9.54936 25.9122C9.38709 25.4794 9.5133 25.227 9.80179 24.9385C10.3427 24.3976 10.8295 23.8206 11.3704 23.2437C12.8309 24.4878 14.3455 25.209 16.0764 25.5155C17.0501 25.6778 17.032 25.6958 17.032 26.7055C17.032 26.976 17.014 27.2464 17.032 27.5169C17.0861 28.148 16.996 28.5987 16.2928 28.9413C15.3732 29.3921 15.0667 30.564 15.3912 31.5197C15.7158 32.4392 16.6173 33.0523 17.6451 32.9982C18.6007 32.9621 19.4661 32.2409 19.6825 31.3213C19.9169 30.2936 19.5022 29.2478 18.5646 28.8331C18.0598 28.6168 17.9876 28.3102 18.0057 27.8595C18.0417 27.2464 17.9876 26.6514 18.0237 26.0384C18.0237 25.8941 18.204 25.6237 18.3122 25.6237C20.3316 25.4434 22.0806 24.632 23.7033 23.2617C24.3164 23.8928 24.9114 24.4878 25.4703 25.1369C25.5965 25.2991 25.5605 25.6597 25.5064 25.8941C25.1277 27.1202 25.7408 28.3643 26.9668 28.743C28.1388 29.1216 29.401 28.4905 29.7616 27.3005C30.032 26.4711 29.8697 25.6778 29.2387 25.0647C28.6256 24.4517 27.8503 24.1632 27.0209 24.4878C26.5341 24.6681 26.2456 24.5599 25.9211 24.1993C25.4162 23.6584 24.8573 23.1896 24.2983 22.6486C25.7227 20.9718 26.48 19.1688 26.6603 17.0231C27.5979 17.0231 28.5175 17.0051 29.419 17.0412C29.5452 17.0412 29.6894 17.2936 29.7796 17.4378C30.3205 18.4656 31.3483 18.9524 32.4301 18.6639C33.4398 18.3934 34.125 17.4198 34.0528 16.3019C33.9807 15.2561 33.1513 14.4087 32.0514 14.2645C31.1499 14.1382 30.2123 14.6431 29.8157 15.5627C29.6534 15.9413 29.419 16.0314 29.0584 16.0314C28.2831 16.0134 27.4897 16.0314 26.6783 16.0314C26.498 13.8858 25.7408 12.0467 24.3704 10.4961C25.0736 9.82895 25.7768 9.16182 26.444 8.51272C26.9849 8.53076 27.634 8.675 28.229 8.54879C29.455 8.27833 30.1222 6.99816 29.7616 5.82618C29.401 4.61813 28.1749 3.93297 27.0029 4.29358C25.7768 4.67222 25.0917 5.8983 25.5244 7.10634C25.6686 7.50302 25.6145 7.75544 25.308 8.04393C24.7311 8.58485 24.2082 9.17985 23.6492 9.77486C21.9904 8.33242 20.1152 7.59317 17.9516 7.43089C17.9516 6.52937 17.9155 5.6639 17.9696 4.78041C17.9876 4.6001 18.2761 4.40177 18.4745 4.29358C19.5924 3.73464 20.0792 2.43644 19.5743 1.31855C19.0695 0.218688 17.7893 -0.304197 16.6894 0.182627C15.824 0.561267 15.3372 1.24643 15.3011 2.16598C15.265 3.06751 15.6617 3.80676 16.4911 4.20343C16.9058 4.40177 17.032 4.63616 16.996 5.0689C16.9599 5.82618 16.9779 6.60149 16.9779 7.41286C14.8864 7.62923 13.0293 8.33242 11.5327 9.68471C10.8476 8.98152 10.1804 8.31439 9.5133 7.64726C9.53133 7.08831 9.67557 6.40315 9.54936 5.79012C9.26087 4.56404 7.98071 3.91494 6.80872 4.27555C5.61871 4.63616 4.93355 5.88027 5.27613 7.05225C5.63674 8.27833 6.88084 8.96349 8.08889 8.54879C8.48556 8.40454 8.73799 8.45863 9.02647 8.76515C9.54936 9.28804 10.1263 9.82895 10.7033 10.4059ZM17.5369 24.5959C13.0293 24.614 9.40512 21.0259 9.40512 16.5363C9.38709 12.0287 12.9752 8.38651 17.4467 8.36848C22.0084 8.35045 25.6506 11.9385 25.6506 16.4462C25.6506 20.9898 22.0806 24.5779 17.5369 24.5959ZM8.71996 26.5432C8.73799 27.2464 8.14298 27.8234 7.42176 27.8234C6.71857 27.8234 6.17765 27.3005 6.15962 26.5973C6.14159 25.8761 6.68251 25.2811 7.40373 25.2631C8.07086 25.245 8.70193 25.8581 8.71996 26.5432ZM28.8781 26.5613C28.8781 27.2825 28.3011 27.8234 27.5799 27.8234C26.8947 27.8054 26.3358 27.2645 26.3177 26.5793C26.2997 25.8941 26.9127 25.2811 27.5979 25.2631C28.3011 25.2631 28.8781 25.8581 28.8781 26.5613ZM8.71996 6.38512C8.71996 7.07028 8.10692 7.68332 7.42176 7.66529C6.71857 7.64726 6.15962 7.07028 6.15962 6.34906C6.17765 5.64587 6.71857 5.12299 7.40373 5.10496C8.12495 5.12299 8.71996 5.68193 8.71996 6.38512ZM27.5799 5.12299C28.3011 5.10496 28.86 5.64587 28.8781 6.36709C28.8781 7.07028 28.3191 7.66529 27.634 7.68332C26.9488 7.70135 26.3358 7.10634 26.3177 6.42118C26.2997 5.71799 26.8767 5.14102 27.5799 5.12299ZM18.781 30.7624C18.763 31.4836 18.186 32.0245 17.4648 32.0065C16.7796 31.9885 16.2387 31.4295 16.2387 30.7444C16.2387 30.0412 16.8157 29.4462 17.5188 29.4642C18.222 29.4642 18.799 30.0592 18.781 30.7624ZM3.27474 17.7443C2.55352 17.7624 1.97654 17.2034 1.95851 16.5002C1.94048 15.7971 2.51746 15.2201 3.23868 15.2201C3.92384 15.2201 4.50082 15.761 4.51885 16.4281C4.55491 17.1133 3.97793 17.7263 3.27474 17.7443ZM31.817 17.7443C31.1139 17.7443 30.5188 17.1854 30.5188 16.4822C30.5188 15.7971 31.1139 15.202 31.817 15.2201C32.5022 15.2201 33.0611 15.761 33.0792 16.4462C33.0972 17.1493 32.5202 17.7263 31.817 17.7443ZM17.5369 0.939908C18.2401 0.957939 18.799 1.53492 18.781 2.25614C18.763 2.9413 18.204 3.50024 17.5188 3.50024C16.8337 3.50024 16.2387 2.90523 16.2387 2.20204C16.2567 1.49885 16.8337 0.921878 17.5369 0.939908Z" fill="black"/>
<path d="M23.4151 16.5008C23.4151 15.5813 23.397 14.6617 23.4151 13.7422C23.4331 13.2914 23.2708 12.9849 22.8561 12.7685C21.2334 11.849 19.6106 10.9294 18.0059 9.9738C17.6453 9.75743 17.3748 9.75743 17.0142 9.9738C15.3915 10.9294 13.7327 11.849 12.128 12.8226C11.8755 12.9669 11.6411 13.3635 11.6231 13.652C11.5871 15.5452 11.5871 17.4384 11.6231 19.3136C11.6231 19.6021 11.8755 19.9988 12.128 20.143C13.7507 21.1167 15.3735 22.0542 17.0323 22.9738C17.2667 23.1 17.6994 23.118 17.9338 22.9918C19.6106 22.0723 21.2694 21.1167 22.8922 20.125C23.1446 19.9807 23.3429 19.566 23.361 19.2595C23.4511 18.34 23.4151 17.4204 23.4151 16.5008ZM22.4234 14.211C22.4234 15.9419 22.4414 17.5286 22.4054 19.1153C22.4054 19.2775 22.171 19.4759 21.9907 19.566C21.2875 19.9988 20.5482 20.3954 19.827 20.8101C19.25 21.1347 18.673 21.4592 18.0059 21.8559C18.0059 20.4676 18.078 19.2415 17.9879 18.0154C17.9158 17.0418 18.2403 16.5008 19.1058 16.0861C20.2056 15.5633 21.2334 14.8961 22.4234 14.211ZM12.5968 14.1929C13.5163 14.7158 14.2736 15.1486 15.0129 15.5813C15.662 15.9599 16.5635 16.2304 16.888 16.8074C17.2126 17.3843 16.9962 18.2859 17.0142 19.0612C17.0142 19.9447 17.0142 20.8282 17.0142 21.8739C15.5177 21.0085 14.1654 20.2332 12.8131 19.4398C12.7049 19.3677 12.5968 19.1874 12.5968 19.0612C12.5968 17.4925 12.5968 15.9239 12.5968 14.1929ZM15.7341 14.8781C17.1945 14.0307 18.5829 13.2373 19.9893 12.444C20.0794 12.3899 20.2597 12.3899 20.3499 12.444C20.8547 12.7144 21.3416 13.021 21.9546 13.3635C20.4581 14.229 19.0877 15.0223 17.6814 15.8157C17.5732 15.8698 17.3748 15.8337 17.2667 15.7796C16.7798 15.4911 16.311 15.2026 15.7341 14.8781ZM19.1238 11.8129C17.7535 12.6063 16.3832 13.3996 15.0309 14.1749C14.9227 14.247 14.7244 14.2831 14.6162 14.229C14.1294 13.9766 13.6606 13.6881 13.1196 13.3635C14.2015 12.7325 15.1932 12.1735 16.1848 11.5965C17.6453 10.7491 17.6453 10.7491 19.0517 11.7047C19.0517 11.6867 19.0517 11.7228 19.1238 11.8129Z" fill="black"/>
</svg>
