<svg width="35" height="34" viewBox="0 0 35 34" fill="none" xmlns="http://www.w3.org/2000/svg">
<path d="M16.5955 21.3736C17.8832 22.8159 19.1031 24.1905 20.323 25.5651L20.3233 25.5654L20.3235 25.5655C21.1454 26.4826 21.963 27.4041 22.7807 28.3256L22.7812 28.3261L22.7812 28.3262C23.599 29.2478 24.4169 30.1696 25.2392 31.087L25.2393 31.0872C26.0628 31.9983 27.1157 32.2785 28.2875 32.0161L28.2878 32.0161C29.4963 31.7358 30.286 30.946 30.5836 29.738L30.5836 29.7379C30.8811 28.5129 30.5653 27.4426 29.6027 26.5849L29.58 26.6103L29.6027 26.5849C28.4949 25.5983 27.3871 24.616 26.2793 23.6337L26.2776 23.6322C25.1704 22.6504 24.0632 21.6687 22.9561 20.6826L22.956 20.6826C22.7412 20.492 22.5272 20.3022 22.3131 20.1124C21.4664 19.3616 20.6197 18.6108 19.7301 17.8171L19.7807 17.759C20.3427 17.1142 20.8903 16.486 21.4694 15.8737C21.5127 15.8307 21.5891 15.8022 21.681 15.7897C21.7718 15.7773 21.8713 15.7814 21.9538 15.7979C21.9538 15.7979 21.9539 15.7979 21.954 15.7979L21.9615 15.7607M16.5955 21.3736L7.14512 30.1443C7.22301 30.0578 7.3009 29.9669 7.37879 29.876C7.45668 29.7851 7.53457 29.6943 7.61246 29.6077C8.05455 29.1099 8.49682 28.612 8.93923 28.1138C12.8964 23.6583 16.8647 19.1902 20.8191 14.7221C21.1133 14.376 21.4076 14.2894 21.8403 14.4452M16.5955 21.3736C15.5852 22.4871 14.6429 23.5499 13.7516 24.6126L13.7509 24.6134C13.2663 25.1586 12.7828 25.7048 12.2993 26.2511C10.8485 27.8901 9.39752 29.5294 7.91738 31.1393L7.8894 31.1136L7.91738 31.1393C6.70767 32.4542 4.69217 32.4358 3.44877 31.1924C2.20579 29.9494 2.16919 27.9166 3.46723 26.7238L3.46725 26.7238C5.09688 25.2279 6.76084 23.7575 8.42265 22.2891C9.12631 21.6673 9.82958 21.0459 10.5297 20.423L10.5297 20.4229C10.6878 20.2825 10.8591 20.1771 11.0346 20.154C11.2132 20.1305 11.3894 20.193 11.5522 20.3736L16.5955 21.3736ZM21.9615 15.7607C23.6404 16.1242 25.0771 15.6914 26.2887 14.4798L33.5411 7.22741L33.7661 7.00239C34.0257 6.70814 34.1123 6.37928 33.8007 6.08503C33.4892 5.80809 33.1776 5.87732 32.8834 6.17157L30.0793 8.9756C29.5722 9.48273 29.0631 9.98987 28.5534 10.4976C27.5323 11.515 26.5085 12.5349 25.4925 13.5624C24.454 14.6183 23.2423 14.9472 21.8403 14.4452M21.9615 15.7607C21.7884 15.726 21.5461 15.7434 21.4422 15.8472L21.9615 15.7607ZM21.8403 14.4452L21.8532 14.4094C21.8532 14.4094 21.8532 14.4094 21.8531 14.4094M21.8403 14.4452L21.8531 14.4094M21.8531 14.4094C21.6322 14.3299 21.4421 14.3106 21.2677 14.3588C21.0934 14.4069 20.9403 14.5209 20.7904 14.6972C16.8369 19.1644 12.8694 23.6315 8.91302 28.0861C8.46989 28.5851 8.02691 29.0838 7.5841 29.5824C7.50591 29.6693 7.42779 29.7604 7.35002 29.8512L7.34993 29.8513C7.27208 29.9421 7.19459 30.0325 7.11716 30.1185C6.69018 30.571 6.18857 30.8079 5.69587 30.8311C5.20342 30.8544 4.71615 30.6645 4.31643 30.2563M21.8531 14.4094L4.31643 30.2563M4.31643 30.2563C3.93412 29.8569 3.76096 29.3696 3.79269 28.8832C3.82442 28.3966 4.06149 27.9079 4.50501 27.507C6.37425 25.8281 8.24349 24.1666 10.1301 22.505L10.1306 22.5045C10.338 22.3144 10.5497 22.1286 10.7618 21.9425L10.762 21.9424C10.9738 21.7565 11.186 21.5703 11.3939 21.3797C11.394 21.3796 11.3941 21.3795 11.3942 21.3794L11.3685 21.3514C11.68 21.0745 11.8531 20.7456 11.5243 20.3994C11.2127 20.0533 10.8665 20.1744 10.555 20.4514L4.31643 30.2563ZM28.8595 27.6973L28.8598 27.6976L24.8631 28.7516C24.2435 28.054 23.625 27.3575 23.0065 26.661C21.1616 24.5835 19.3167 22.506 17.443 20.3996C17.6435 20.1774 17.8409 19.9555 18.0415 19.7298C18.311 19.4268 18.5864 19.1172 18.8833 18.7912C19.9631 19.7546 21.0392 20.711 22.1113 21.6636C24.381 23.6805 26.6321 25.6809 28.8595 27.6973Z" fill="black" stroke="black" stroke-width="0.0760299"/>
<path d="M12.8134 5.64205L12.8137 5.64232C13.8825 6.63293 14.5665 7.72097 14.8564 8.90658C15.1462 10.0921 15.0412 11.3719 14.5373 12.7448C14.514 12.8151 14.5093 12.9209 14.5239 13.0232C14.5387 13.1268 14.5717 13.2158 14.6145 13.2589C15.1053 13.7231 15.6163 14.1669 16.1406 14.6222C16.2912 14.7529 16.4429 14.8847 16.5955 15.0181C16.8161 14.8207 17.0378 14.6291 17.2587 14.4383C17.7079 14.0502 18.1532 13.6654 18.5767 13.2419C18.6485 13.1702 18.7066 13.0557 18.7423 12.9316C18.778 12.8078 18.7899 12.6799 18.7739 12.5832C18.4428 10.9093 18.8795 9.49464 20.0826 8.29158L23.7261 4.64807L27.3696 1.00456C27.3943 0.979872 27.4193 0.95073 27.4456 0.919572C27.4489 0.915639 27.4523 0.911672 27.4556 0.907682C27.4785 0.880494 27.5023 0.852213 27.5266 0.82603C27.5806 0.767663 27.6449 0.710282 27.72 0.699554L27.7212 0.699383C27.8417 0.682173 27.9953 0.660227 28.1365 0.660227C28.2074 0.660227 28.2767 0.665738 28.3381 0.680794C28.3993 0.695806 28.4553 0.72096 28.4965 0.762233C28.5759 0.841627 28.6113 0.979133 28.6222 1.11935C28.6333 1.26167 28.6201 1.41666 28.5934 1.54102M12.8134 5.64205L19.9191 13.7534C20.2653 13.4592 20.2999 13.1476 20.1441 12.7149L20.1799 12.7021C20.1799 12.702 20.1799 12.702 20.1799 12.702C19.9396 12.0326 19.8888 11.4084 20.0253 10.8261C20.1619 10.2437 20.4864 9.7003 21.0016 9.1937L21.0017 9.19357C22.6051 7.60171 24.2009 6.0021 25.7991 4.40001C26.5991 3.59808 27.3998 2.79552 28.2023 1.99299C28.2357 1.9596 28.2735 1.92697 28.3131 1.8934L28.3258 1.88263C28.361 1.85277 28.3972 1.82205 28.4308 1.79042C28.5054 1.72022 28.5736 1.63977 28.5934 1.54102M12.8134 5.64205C10.9407 3.94279 8.85732 2.65725 6.30351 2.2229C4.56167 1.91811 3.03008 2.41431 2.01014 3.42551C0.99014 4.43678 0.485147 5.95985 0.790005 7.70189L0.790008 7.70191C1.31103 10.6717 2.85683 13.0677 5.0777 15.011L5.07776 15.011C6.8375 16.5443 8.9295 16.8224 11.122 16.0046C11.336 15.9276 11.5007 15.9003 11.6459 15.9325C11.7901 15.9646 11.9217 16.0571 12.066 16.2352L12.066 16.2353C12.4028 16.6481 12.7538 17.0412 13.1051 17.4346C13.3137 17.6683 13.5224 17.902 13.7282 18.1399C13.9136 18.3605 14.1085 18.4813 14.3176 18.4929C14.5263 18.5045 14.7392 18.4067 14.9593 18.213L14.9595 18.2128C16.6209 16.7245 18.2822 15.2535 19.9437 13.7825L19.9437 13.7824C19.9438 13.7823 19.9439 13.7822 19.944 13.7822L12.8134 5.64205ZM28.5934 1.54102C28.5934 1.54113 28.5934 1.54124 28.5934 1.54136L28.5562 1.53339L28.5935 1.54085C28.5935 1.54091 28.5935 1.54096 28.5934 1.54102ZM12.5232 14.8373L12.523 14.8371C12.3211 14.5913 12.1233 14.4495 11.8986 14.4105C11.6746 14.3716 11.4319 14.4365 11.1434 14.5851C9.3382 15.5135 7.50319 15.3924 5.97574 14.0709L5.97549 14.0706C3.90385 12.3098 2.43861 10.1021 2.04209 7.3092L2.04207 7.30906C1.86184 6.07317 2.21395 5.02128 2.91825 4.32552C3.62256 3.62974 4.68316 3.2861 5.92785 3.47495L5.92814 3.47499C8.44426 3.8369 10.445 5.16389 12.2247 6.89168C13.8572 8.50711 14.2002 10.6352 13.135 12.6626L13.1349 12.6628C13.0034 12.917 12.9474 13.1336 12.9819 13.3337C13.0165 13.5342 13.1406 13.7103 13.3519 13.8864C13.8798 14.3322 14.3914 14.7935 14.9092 15.2605C15.1445 15.4727 15.3811 15.686 15.6211 15.8996C15.2098 16.2612 14.8283 16.5929 14.4011 16.9547C14.2518 16.7899 14.1027 16.627 13.9545 16.4651C13.4572 15.9216 12.9702 15.3896 12.5232 14.8373Z" fill="black" stroke="black" stroke-width="0.0760299"/>
<path d="M30.4929 3.0767L30.4979 3.06825L30.4983 3.05841C30.5163 2.51581 30.0069 2.17779 29.5961 2.38221C29.4688 2.43708 29.3779 2.52793 29.2763 2.62954L29.2737 2.63216L29.2736 2.63228C27.3004 4.60545 25.3273 6.57856 23.3542 8.53435L23.3541 8.53447C23.3404 8.54813 23.3283 8.5628 23.3185 8.57469C23.315 8.57901 23.3117 8.58296 23.3088 8.58637C23.2968 8.60044 23.2878 8.6087 23.2774 8.61389L23.2763 8.61167L23.2667 8.62184C23.1247 8.7727 23.0281 8.94916 23.0142 9.11861C23 9.29122 23.0723 9.4519 23.2571 9.56299C23.3624 9.62971 23.5405 9.65528 23.7075 9.64649C23.7922 9.64204 23.8765 9.62865 23.9503 9.60592C24.0235 9.58341 24.0895 9.55079 24.1346 9.50577C25.7829 7.89909 27.409 6.27021 29.0304 4.64599C29.4348 4.24092 29.8389 3.83614 30.2429 3.43207C30.3165 3.37628 30.3665 3.30745 30.4044 3.24296C30.4234 3.21045 30.4396 3.17865 30.4539 3.15027L30.4559 3.14627C30.4696 3.1191 30.4813 3.09593 30.4929 3.0767Z" fill="black" stroke="black" stroke-width="0.0760299"/>
<path d="M32.1867 4.7407L32.1947 4.73005L32.1943 4.71674C32.1853 4.41981 32.0499 4.19566 31.8631 4.07576C31.6765 3.95599 31.4405 3.94183 31.2371 4.06191C31.1727 4.09873 31.114 4.1487 31.0574 4.20098C31.0375 4.21935 31.018 4.23783 30.9986 4.25626C30.9615 4.29143 30.9247 4.32642 30.8853 4.36016L30.8852 4.36007L30.8832 4.36214L28.0012 7.24406L25.1193 10.126C25.1035 10.1418 25.0854 10.1569 25.0661 10.1725C25.0618 10.176 25.0573 10.1795 25.0528 10.1831C25.0379 10.195 25.0226 10.2073 25.0087 10.2195C24.9749 10.249 24.9357 10.2891 24.9351 10.342C24.9178 10.637 24.9178 10.9146 24.9178 11.2082V11.2087V11.2467H24.9558H24.9571C25.2505 11.2467 25.5467 11.2467 25.826 11.2118L25.826 11.2119L25.8287 11.2114C25.8854 11.2 25.9317 11.1563 25.9686 11.1151C25.9844 11.0974 25.9998 11.0786 26.0144 11.0607C26.0175 11.057 26.0205 11.0534 26.0234 11.0498C26.041 11.0284 26.0573 11.0091 26.0731 10.9933L28.9118 8.15461L31.7504 5.31596C31.8479 5.21848 31.9316 5.10824 32.0035 5.00586C32.0345 4.96167 32.0629 4.91966 32.0892 4.88068C32.1249 4.82777 32.1569 4.78042 32.1867 4.7407Z" fill="black" stroke="black" stroke-width="0.0760299"/>
</svg>
