<svg width="34" height="34" viewBox="0 0 34 34" fill="none" xmlns="http://www.w3.org/2000/svg">
<path d="M16.0384 29.6656C18.8218 29.6656 21.6052 29.6656 24.3886 29.6656C27.4277 29.6656 29.519 27.0628 28.8871 24.0688C28.5109 22.2935 28.1348 20.5031 27.7436 18.7277C27.3826 17.1329 26.4046 16.0497 24.9001 15.478C24.5691 15.3426 24.4638 15.1771 24.4036 14.8461C24.0425 12.9654 23.0044 11.6866 21.1689 11.0848C21.0034 11.0246 20.8228 10.8591 20.7476 10.6936C20.2662 9.62537 19.4988 8.81293 18.4156 8.34653C18.0696 8.19608 18.0545 7.9704 18.0395 7.68454C17.9041 5.36757 16.3995 3.42673 14.218 2.7497C10.8328 1.71158 7.50779 4.07368 7.19184 7.72967C7.1768 7.92526 7.05644 8.22617 6.90598 8.30139C5.02533 9.18906 4.27307 10.7387 4.12261 12.7397C3.86685 15.9594 3.53585 19.1791 3.24999 22.3988C3.15972 23.5121 3.00927 24.6556 3.11458 25.7689C3.31017 27.9806 5.2811 29.6506 7.50779 29.6506C10.3513 29.6656 13.1949 29.6656 16.0384 29.6656ZM12.6382 27.8452C10.9532 27.8452 9.25304 27.8602 7.56797 27.8452C5.913 27.8301 4.73947 26.476 4.88992 24.8211C4.98019 23.8883 5.05542 22.9404 5.14569 22.0076C5.4466 18.7428 5.73246 15.493 6.04841 12.2282C6.19886 10.7387 7.28212 9.76078 8.77159 9.76078C11.3443 9.74574 13.9171 9.74574 16.4898 9.76078C18.0395 9.76078 19.1378 10.844 19.2581 12.3787C19.4537 14.6655 19.6794 16.9524 19.89 19.2393C20.0555 21.135 20.2662 23.0156 20.3715 24.9113C20.4768 26.6566 19.3033 27.8301 17.543 27.8452C15.903 27.8452 14.2631 27.8452 12.6382 27.8452ZM21.4999 16.9975C22.0866 16.9975 22.6283 16.9975 23.1699 16.9975C24.6293 17.0126 25.6824 17.8551 25.9833 19.2694C26.3595 20.9996 26.7206 22.7147 27.0967 24.4449C27.4427 26.0849 26.4798 27.6345 24.8399 27.8C23.7115 27.9204 22.5681 27.8301 21.3193 27.8301C22.0866 26.7769 22.2822 25.6486 22.1619 24.46C22.0264 23.0156 21.891 21.5713 21.7707 20.1269C21.6955 19.1039 21.6052 18.0808 21.4999 16.9975ZM9.05745 7.92526C9.10259 5.81893 10.7877 4.23918 12.8338 4.34449C14.7145 4.44981 16.3093 6.14992 16.1588 7.92526C13.8117 7.92526 11.4496 7.92526 9.05745 7.92526ZM21.1538 13.146C21.9813 13.507 22.538 14.3646 22.4929 15.147C22.1167 15.147 21.7255 15.147 21.3193 15.147C21.2742 14.4549 21.214 13.8079 21.1538 13.146Z" fill="black"/>
<path d="M12.1568 20.0365C11.0133 20.0365 9.86987 20.0365 8.72644 20.0365C8.09454 20.0365 7.71841 20.3675 7.68832 20.8941C7.67327 21.4508 8.06445 21.842 8.71139 21.842C10.9983 21.857 13.2851 21.857 15.572 21.842C16.2039 21.842 16.6402 21.4508 16.6402 20.9242C16.6402 20.3826 16.2491 20.0215 15.5871 20.0215C14.4436 20.0215 13.3002 20.0365 12.1568 20.0365Z" fill="black"/>
<path d="M9.95992 24.8055C10.5467 24.8055 11.1184 24.8206 11.7052 24.8055C12.2468 24.7905 12.5928 24.4444 12.6079 23.9329C12.6229 23.4214 12.2919 23.0152 11.7653 23.0001C10.5617 22.97 9.37315 22.97 8.16953 23.0001C7.62791 23.0152 7.25178 23.4515 7.28187 23.963C7.31196 24.4595 7.67304 24.7905 8.21467 24.8055C8.80143 24.8206 9.3882 24.8055 9.95992 24.8055Z" fill="black"/>
<path d="M10.1103 12.3338C10.1103 11.8373 9.71912 11.4461 9.22262 11.4311C8.71109 11.4161 8.31991 11.7922 8.30486 12.2887C8.28982 12.8002 8.71109 13.2516 9.20758 13.2365C9.67398 13.2516 10.0952 12.8153 10.1103 12.3338Z" fill="black"/>
<path d="M17.1218 12.3494C17.1218 11.8379 16.7607 11.4467 16.2492 11.4467C15.7226 11.4316 15.3014 11.8529 15.3164 12.3644C15.3314 12.8308 15.7678 13.2672 16.2342 13.2672C16.7307 13.2521 17.1218 12.8459 17.1218 12.3494Z" fill="black"/>
<path d="M24.3133 18.8348C24.3284 18.3684 23.9222 17.9321 23.4557 17.902C22.9442 17.8719 22.5229 18.2631 22.5079 18.7746C22.4929 19.2711 22.8539 19.6774 23.3504 19.7074C23.8469 19.7375 24.2983 19.3313 24.3133 18.8348Z" fill="black"/>
</svg>
